<svg version="1.1" xmlns="http://www.w3.org/2000/svg" style="display: block;" viewBox="0 0 2048 2048" width="1024" height="1024" preserveAspectRatio="none">
<defs>
	<linearGradient id="Gradient1" gradientUnits="userSpaceOnUse" x1="966.224" y1="1194.15" x2="922.776" y2="1222.85">
		<stop class="stop0" offset="0" stop-opacity="1" stop-color="rgb(35,86,19)"/>
		<stop class="stop1" offset="1" stop-opacity="1" stop-color="rgb(0,102,55)"/>
	</linearGradient>
</defs>
<path transform="translate(0,0)" fill="rgb(90,48,24)" d="M 1279.38 18.1764 C 1285.83 25.6212 1292.02 33.2833 1297.95 41.1493 C 1329.08 80.0947 1359.72 119.424 1389.87 159.127 C 1404.04 177.535 1432.67 209.719 1441.5 231.556 C 1443.88 237.421 1445.17 268.62 1446 276.689 L 1456.53 380.009 C 1458.01 395.623 1459.34 421.441 1461.82 436.081 C 1478.05 455.365 1506.88 483.373 1525 501.407 L 1610.9 587.467 L 1922.63 899.112 L 2005 981.528 C 2014.94 991.413 2039.67 1014.83 2047.36 1024.94 L 1376.08 1697.34 L 1140.73 1932.72 L 1061.15 2012.19 C 1051.24 2022.06 1035.17 2039.38 1025.38 2048 L 1023.16 2048 C 1017.32 2043.3 999.549 2024.47 993.239 2018.07 C 973.39 1997.88 953.42 1977.82 933.33 1957.87 L 709.005 1733.21 L 279.285 1303.55 L 64.3823 1088.77 C 42.9896 1067.46 21.9148 1045.35 0.432122 1024.34 C 11.3409 1010.1 41.2565 982.144 54.9111 968.618 L 157.963 866.012 L 406.21 617.269 C 465.228 558.551 527.864 497.496 585.646 437.802 C 586.358 445.935 583.438 469.44 582.524 478.682 L 574.293 560.747 C 572.99 573.458 571.114 605.961 568.434 616.105 C 524.375 661.026 479.935 705.57 435.117 749.734 L 236.48 948.262 C 211.353 973.457 184.821 998.971 160.184 1024.43 L 355.652 1219.98 C 377.329 1241.76 408.839 1270.56 428.435 1292.28 C 451.611 1279.71 481.43 1266.24 505.656 1255.26 C 531.394 1244.47 562.635 1226.42 588.255 1217.65 C 599.412 1214.21 612.421 1206.59 623.416 1201.74 C 654.535 1188.01 686.181 1170.6 717.44 1157.63 C 715.93 1150.46 716.867 1118.15 716.797 1108.78 L 717.033 963.649 C 717.042 944.937 717.974 903.604 714.974 886.919 C 717.401 863.833 716.656 843.182 715.895 820.039 C 722.864 820.396 729.802 820.449 736.777 820.309 C 775.766 819.531 815.042 820.543 853.985 819.328 L 853.936 701.008 C 844.993 688.747 821.973 667.841 810.269 655.79 C 829.483 642.106 903.604 583.515 922.746 579.669 C 933.045 577.6 945.559 578.932 956.113 578.95 L 1024.82 579.139 C 1045.25 579.322 1065.69 579.252 1086.12 578.931 C 1097.98 578.821 1111.5 577.487 1123.2 579.682 C 1139.01 582.649 1217.22 642.475 1237.4 655.57 C 1239.65 649.627 1304.66 588.618 1313.61 580.069 C 1315.91 555.547 1318.01 531.007 1319.9 506.45 C 1321.02 492.683 1322.02 473.57 1324.55 460.382 C 1326.15 452.759 1327.22 437.065 1328.02 428.705 L 1333.46 371.235 C 1334.27 362.786 1339.13 320.391 1338.47 315.18 C 1339.25 296.121 1344.54 262.467 1343.77 245.213 C 1343.22 232.841 1328.82 191.044 1324.93 176.957 C 1314.3 138.39 1303.18 99.5639 1291.4 61.334 C 1287.02 47.0558 1283.01 32.665 1279.38 18.1764 z M 1484.01 667.892 C 1474.89 678.113 1465.08 687.674 1455.37 697.322 C 1418.54 733.901 1381.46 770.233 1344.64 806.823 C 1340.03 811.411 1335.41 815.996 1330.92 820.704 C 1331.02 837.796 1330.03 873.608 1332.8 888.67 C 1347.38 926.126 1347.13 938.281 1381.04 960.918 C 1416.41 984.526 1418.12 973.863 1455.99 972.792 L 1455.53 973.709 C 1448.9 987.268 1443.24 1008.3 1432.51 1018.31 C 1421.94 1028.17 1399.09 1032.42 1385.67 1038.89 C 1393.61 1042.01 1410.73 1054.7 1418.91 1059.81 C 1436.5 1054.43 1450.66 1050.93 1465.77 1040.2 C 1471.39 1034.93 1478.38 1028.14 1484.36 1023.36 C 1483.23 1030.48 1482.42 1034.54 1480.49 1041.48 C 1474.51 1063.25 1470.98 1088.56 1454.43 1103.82 C 1446.94 1110.72 1436.04 1119.11 1429.45 1125.96 C 1441.25 1125.91 1455.02 1125.51 1466.64 1126.31 C 1480.02 1115.74 1491.05 1102.35 1503.2 1090.37 C 1500.26 1114.49 1503.76 1150.1 1502.03 1174.75 C 1488.48 1190.68 1474.67 1203.23 1459.13 1217.16 C 1489.02 1228.4 1515 1242.91 1543.7 1255.27 C 1566.25 1265.54 1599.95 1279.86 1620.76 1291.54 L 1802.83 1108.43 C 1830.8 1080.53 1861.03 1052.18 1888.12 1023.71 C 1876.93 1011.22 1857 992.504 1844.66 980.177 L 1748.6 884.896 L 1479.84 616.253 C 1481.19 628.911 1483.95 655.408 1484.01 667.892 z"/>
<path transform="translate(0,0)" fill="rgb(197,36,17)" d="M 1332.8 888.67 C 1347.38 926.126 1347.13 938.281 1381.04 960.918 C 1416.41 984.526 1418.12 973.863 1455.99 972.792 L 1455.53 973.709 C 1448.9 987.268 1443.24 1008.3 1432.51 1018.31 C 1421.94 1028.17 1399.09 1032.42 1385.67 1038.89 C 1393.61 1042.01 1410.73 1054.7 1418.91 1059.81 C 1436.5 1054.43 1450.66 1050.93 1465.77 1040.2 C 1472.27 1041.35 1473.83 1041.59 1480.49 1041.48 C 1474.51 1063.25 1470.98 1088.56 1454.43 1103.82 C 1446.94 1110.72 1436.04 1119.11 1429.45 1125.96 C 1441.25 1125.91 1455.02 1125.51 1466.64 1126.31 C 1480.02 1115.74 1491.05 1102.35 1503.2 1090.37 C 1500.26 1114.49 1503.76 1150.1 1502.03 1174.75 C 1488.48 1190.68 1474.67 1203.23 1459.13 1217.16 C 1439.25 1209.73 1410.64 1194.78 1390.57 1185.68 C 1376.34 1179.23 1343.5 1164.29 1331.83 1156.64 C 1330.81 1143.18 1331.16 1125.43 1331.18 1111.75 L 1331.22 1044.54 L 1331.31 944.64 C 1331.32 934.625 1330.05 895.193 1332.8 888.67 z"/>
<path transform="translate(0,0)" fill="rgb(104,175,71)" d="M 1279.38 18.1764 C 1285.83 25.6212 1292.02 33.2833 1297.95 41.1493 C 1329.08 80.0947 1359.72 119.424 1389.87 159.127 C 1404.04 177.535 1432.67 209.719 1441.5 231.556 C 1443.88 237.421 1445.17 268.62 1446 276.689 L 1456.53 380.009 C 1458.01 395.623 1459.34 421.441 1461.82 436.081 C 1464.77 474.344 1469.31 513.623 1473 551.963 C 1474.6 568.525 1476.79 601.275 1479.84 616.253 C 1481.19 628.911 1483.95 655.408 1484.01 667.892 C 1474.89 678.113 1465.08 687.674 1455.37 697.322 C 1418.54 733.901 1381.46 770.233 1344.64 806.823 C 1340.03 811.411 1335.41 815.996 1330.92 820.704 C 1331.02 837.796 1330.03 873.608 1332.8 888.67 C 1330.05 895.193 1331.32 934.625 1331.31 944.64 L 1331.22 1044.54 L 1331.18 1111.75 C 1331.16 1125.43 1330.81 1143.18 1331.83 1156.64 C 1323.84 1162.26 1312.83 1174.19 1305.87 1181.64 L 1246.43 1238.26 C 1230.85 1253.36 1211.94 1272.54 1195.77 1286.54 C 1195.62 1272.37 1195.62 1257.88 1194.94 1243.76 C 1160.82 1276.14 1127.33 1314.61 1092.77 1348 C 1084.23 1338.15 1063.39 1300.95 1055.19 1296.44 C 1045.57 1297.12 1033.7 1296.92 1023.9 1297.01 C 1013.84 1297.14 1003.78 1297.13 993.727 1296.97 C 985.01 1303.21 965.148 1336.61 954.789 1348.44 C 932.472 1324.86 909.97 1301.46 887.285 1278.24 C 878.947 1269.7 862.068 1251.66 853.107 1244.62 C 851.842 1258.59 852.033 1272.4 851.968 1286.42 C 815.988 1250.84 779.401 1215.88 742.222 1181.55 C 734.088 1172.55 727.191 1164.85 717.44 1157.63 C 715.93 1150.46 716.867 1118.15 716.797 1108.78 L 717.033 963.649 C 717.042 944.937 717.974 903.604 714.974 886.919 C 717.401 863.833 716.656 843.182 715.895 820.039 C 722.864 820.396 729.802 820.449 736.777 820.309 C 775.766 819.531 815.042 820.543 853.985 819.328 L 853.936 701.008 C 844.993 688.747 821.973 667.841 810.269 655.79 C 829.483 642.106 903.604 583.515 922.746 579.669 C 933.045 577.6 945.559 578.932 956.113 578.95 L 1024.82 579.139 C 1045.25 579.322 1065.69 579.252 1086.12 578.931 C 1097.98 578.821 1111.5 577.487 1123.2 579.682 C 1139.01 582.649 1217.22 642.475 1237.4 655.57 C 1239.65 649.627 1304.66 588.618 1313.61 580.069 C 1315.91 555.547 1318.01 531.007 1319.9 506.45 C 1321.02 492.683 1322.02 473.57 1324.55 460.382 C 1326.15 452.759 1327.22 437.065 1328.02 428.705 L 1333.46 371.235 C 1334.27 362.786 1339.13 320.391 1338.47 315.18 C 1339.25 296.121 1344.54 262.467 1343.77 245.213 C 1343.22 232.841 1328.82 191.044 1324.93 176.957 C 1314.3 138.39 1303.18 99.5639 1291.4 61.334 C 1287.02 47.0558 1283.01 32.665 1279.38 18.1764 z"/>
<path transform="translate(0,0)" fill="rgb(243,134,0)" d="M 1279.38 18.1764 C 1285.83 25.6212 1292.02 33.2833 1297.95 41.1493 C 1329.08 80.0947 1359.72 119.424 1389.87 159.127 C 1404.04 177.535 1432.67 209.719 1441.5 231.556 C 1443.88 237.421 1445.17 268.62 1446 276.689 L 1456.53 380.009 C 1458.01 395.623 1459.34 421.441 1461.82 436.081 C 1464.77 474.344 1469.31 513.623 1473 551.963 C 1474.6 568.525 1476.79 601.275 1479.84 616.253 C 1481.19 628.911 1483.95 655.408 1484.01 667.892 C 1474.89 678.113 1465.08 687.674 1455.37 697.322 C 1418.54 733.901 1381.46 770.233 1344.64 806.823 C 1340.03 811.411 1335.41 815.996 1330.92 820.704 C 1331.02 837.796 1330.03 873.608 1332.8 888.67 C 1330.05 895.193 1331.32 934.625 1331.31 944.64 L 1331.22 1044.54 L 1331.18 1111.75 C 1331.16 1125.43 1330.81 1143.18 1331.83 1156.64 C 1323.84 1162.26 1312.83 1174.19 1305.87 1181.64 L 1246.43 1238.26 C 1230.85 1253.36 1211.94 1272.54 1195.77 1286.54 C 1195.62 1272.37 1195.62 1257.88 1194.94 1243.76 C 1194.76 1204.27 1193.74 1168.02 1195.2 1128.37 C 1199.9 1120.09 1217.37 1103.79 1224.78 1096.36 C 1237.28 1083.84 1249.69 1071.23 1262.01 1058.54 C 1265.43 1053.6 1263.15 906.685 1263.08 887.039 L 1094.12 887.19 C 1070.81 900.347 1046.84 924.85 1024.17 937.843 L 1023.79 721.305 C 1023.57 691.266 1023.59 661.226 1023.86 631.188 C 1023.96 615.008 1023.62 595.013 1024.82 579.139 C 1045.25 579.322 1065.69 579.252 1086.12 578.931 C 1097.98 578.821 1111.5 577.487 1123.2 579.682 C 1139.01 582.649 1217.22 642.475 1237.4 655.57 C 1239.65 649.627 1304.66 588.618 1313.61 580.069 C 1315.91 555.547 1318.01 531.007 1319.9 506.45 C 1321.02 492.683 1322.02 473.57 1324.55 460.382 C 1326.15 452.759 1327.22 437.065 1328.02 428.705 L 1333.46 371.235 C 1334.27 362.786 1339.13 320.391 1338.47 315.18 C 1339.25 296.121 1344.54 262.467 1343.77 245.213 C 1343.22 232.841 1328.82 191.044 1324.93 176.957 C 1314.3 138.39 1303.18 99.5639 1291.4 61.334 C 1287.02 47.0558 1283.01 32.665 1279.38 18.1764 z"/>
<path transform="translate(0,0)" fill="rgb(247,197,5)" d="M 1279.38 18.1764 C 1285.83 25.6212 1292.02 33.2833 1297.95 41.1493 C 1296.74 46.7705 1296.67 48.3524 1298.5 53.8956 C 1314.82 84.7185 1395.99 226.523 1397.84 246.415 C 1399.5 264.067 1399.1 281.852 1399.06 299.564 L 1398.6 382.805 L 1398.98 627.172 C 1393.4 635.148 1378.88 647.982 1371.18 655.088 L 1327.41 695.259 C 1283.41 735.72 1239.31 777.995 1194.74 817.598 C 1193.55 799.574 1193.98 777.626 1194.01 759.321 C 1194.03 740.444 1193.65 718.737 1194.65 700.014 C 1201.55 692.157 1236 659.818 1237.4 655.57 C 1239.65 649.627 1304.66 588.618 1313.61 580.069 C 1315.91 555.547 1318.01 531.007 1319.9 506.45 C 1321.02 492.683 1322.02 473.57 1324.55 460.382 C 1326.15 452.759 1327.22 437.065 1328.02 428.705 L 1333.46 371.235 C 1334.27 362.786 1339.13 320.391 1338.47 315.18 C 1339.25 296.121 1344.54 262.467 1343.77 245.213 C 1343.22 232.841 1328.82 191.044 1324.93 176.957 C 1314.3 138.39 1303.18 99.5639 1291.4 61.334 C 1287.02 47.0558 1283.01 32.665 1279.38 18.1764 z"/>
<path transform="translate(0,0)" fill="rgb(230,187,91)" d="M 1279.38 18.1764 C 1285.83 25.6212 1292.02 33.2833 1297.95 41.1493 C 1296.74 46.7705 1296.67 48.3524 1298.5 53.8956 L 1296.95 53.0433 C 1295.86 50.4693 1296.01 49.3499 1294.14 48.577 C 1292.71 52.3478 1291.62 53.3064 1294.58 56.5445 C 1293.35 58.7087 1293 59.4609 1291.4 61.334 C 1287.02 47.0558 1283.01 32.665 1279.38 18.1764 z"/>
<path transform="translate(0,0)" fill="rgb(247,197,5)" d="M 810.269 655.79 C 829.483 642.106 903.604 583.515 922.746 579.669 C 933.045 577.6 945.559 578.932 956.113 578.95 L 1024.82 579.139 C 1023.62 595.013 1023.96 615.008 1023.86 631.188 C 1023.59 661.226 1023.57 691.266 1023.79 721.305 L 1024.17 937.843 L 1023.68 939.152 C 1009.19 927.904 971.737 895.282 957.317 889.461 C 943.884 884.04 810.505 887.54 784.41 887.227 C 786.133 941.127 784.889 1001.58 784.992 1056.08 C 794.53 1073.51 838.839 1108.9 852.904 1127.5 L 852.688 1210.03 C 852.738 1219.05 852.401 1236.09 853.107 1244.62 C 851.842 1258.59 852.033 1272.4 851.968 1286.42 C 815.988 1250.84 779.401 1215.88 742.222 1181.55 C 734.088 1172.55 727.191 1164.85 717.44 1157.63 C 715.93 1150.46 716.867 1118.15 716.797 1108.78 L 717.033 963.649 C 717.042 944.937 717.974 903.604 714.974 886.919 C 717.401 863.833 716.656 843.182 715.895 820.039 C 722.864 820.396 729.802 820.449 736.777 820.309 C 775.766 819.531 815.042 820.543 853.985 819.328 L 853.936 701.008 C 844.993 688.747 821.973 667.841 810.269 655.79 z"/>
<path transform="translate(0,0)" fill="rgb(28,128,64)" d="M 1094.12 887.19 L 1263.08 887.039 C 1263.15 906.685 1265.43 1053.6 1262.01 1058.54 C 1210.69 1058.06 1159.92 1058.83 1108.52 1057.95 C 1097.55 1047 1086.27 1035.44 1075.06 1024.81 C 1074.98 1039.94 1073.7 1083.62 1077.18 1096.26 C 1074.96 1101.12 1076.09 1114.2 1076.38 1119.96 C 1065.98 1123.87 1052.17 1129.4 1041.47 1131.45 C 1039.46 1082.41 1040.91 1022.97 1040.88 973.2 L 1024.08 973.301 C 1024.2 961.916 1024.07 950.53 1023.68 939.152 L 1024.17 937.843 C 1046.84 924.85 1070.81 900.347 1094.12 887.19 z"/>
<path transform="translate(0,0)" fill="rgb(197,36,17)" d="M 1186.72 909.306 C 1208.39 919.712 1222.38 926.497 1242.75 938.939 C 1209.81 938.201 1190.75 935.7 1162.48 954.823 C 1154.45 960.257 1146.09 965.401 1138.62 971.942 C 1128.67 976.309 1113.39 985.439 1104.83 992.102 C 1101.7 990.846 1094.6 989.84 1090.86 988.865 C 1073.8 984.421 1068.04 974.256 1060.83 959.012 C 1076.93 959.991 1083.81 959.529 1098.7 953.265 C 1128.74 940.633 1156.69 921.556 1186.72 909.306 z"/>
<path transform="translate(0,0)" fill="rgb(247,197,5)" d="M 1138.62 971.942 C 1154.88 974.641 1194.06 972.692 1212.46 973.008 C 1207.11 992.407 1198.93 1006.49 1189.5 1024.02 C 1163.6 1024.15 1137.71 1024.14 1111.81 1024 L 1092.56 1005.06 L 1104.83 992.102 C 1113.39 985.439 1128.67 976.309 1138.62 971.942 z"/>
<path transform="translate(0,0)" fill="rgb(28,128,64)" d="M 993.727 1296.97 C 989.615 1287.55 976.441 1279.08 975.324 1269.85 C 981.449 1260.94 1012.62 1262.88 1023.25 1262.88 L 1077.63 1262.94 C 1074.39 1268.16 1058.42 1295.17 1055.19 1296.44 C 1045.57 1297.12 1033.7 1296.92 1023.9 1297.01 C 1013.84 1297.14 1003.78 1297.13 993.727 1296.97 z"/>
<path transform="translate(0,0)" fill="rgb(28,128,64)" d="M 973.057 1093.53 C 972.483 1102.51 972.133 1111.5 972.007 1120.5 C 989.393 1125.93 1006.67 1131.71 1023.82 1137.85 C 1024.04 1144.9 1024.14 1156.66 1026.31 1163.02 L 1024.57 1163.82 C 1001.69 1151.5 978.385 1137.71 955.489 1125.01 C 961.582 1114.64 966.855 1104.04 973.057 1093.53 z"/>
<path transform="translate(0,0)" fill="rgb(2,104,54)" d="M 1077.18 1096.26 C 1082.37 1106.1 1087.6 1115.92 1092.89 1125.71 C 1070.03 1136.92 1047.8 1149.37 1026.31 1163.02 C 1024.14 1156.66 1024.04 1144.9 1023.82 1137.85 C 1028.61 1135.34 1036.23 1132.75 1041.47 1131.45 C 1052.17 1129.4 1065.98 1123.87 1076.38 1119.96 C 1076.09 1114.2 1074.96 1101.12 1077.18 1096.26 z"/>
<path transform="translate(0,0)" fill="rgb(232,231,151)" d="M 1125.7 1165.38 C 1133.06 1160.39 1138.46 1156.69 1146.72 1153.18 C 1138.32 1178.57 1130.33 1200.59 1109.94 1219.41 C 1106.94 1222.49 1101.27 1228.37 1097.37 1229.77 C 1068.61 1240.14 1036.39 1237.46 1006.26 1237.58 C 986.853 1237.67 959.657 1239.15 943.845 1225.69 L 942.901 1225.94 C 931.882 1222.62 913.424 1206.75 904.14 1199.14 C 912.944 1199.56 921.834 1199.37 930.653 1199.29 C 939.603 1197.4 957.406 1195.95 967.348 1194.84 L 1046.79 1185.52 C 1063.54 1183.43 1082.39 1181.32 1098.62 1177.34 C 1106.15 1175.5 1117.36 1168.35 1125.7 1165.38 z"/>
<path transform="translate(0,0)" fill="rgb(2,104,54)" d="M 1125.7 1165.38 C 1133.06 1160.39 1138.46 1156.69 1146.72 1153.18 C 1138.32 1178.57 1130.33 1200.59 1109.94 1219.41 C 1109.34 1215.81 1109.41 1214.17 1107.08 1211.37 C 1098.3 1208.15 1063.33 1210.26 1052.32 1210.94 C 1064.8 1206.88 1091.52 1201.83 1105.53 1198.8 C 1111.74 1190.68 1120.23 1174.77 1125.7 1165.38 z"/>
<path transform="translate(0,0)" fill="url(#Gradient1)" d="M 904.14 1199.14 C 912.944 1199.56 921.834 1199.37 930.653 1199.29 C 935.202 1203.45 939.7 1207.68 944.147 1211.95 C 961.047 1213.02 977.954 1213.52 994.802 1214.85 C 980.281 1217.17 954.136 1218.3 943.845 1225.69 L 942.901 1225.94 C 931.882 1222.62 913.424 1206.75 904.14 1199.14 z"/>
<path transform="translate(0,0)" fill="rgb(241,76,24)" d="M 862.504 908.845 C 884.22 919.597 905.218 931.472 926.804 942.433 C 938.261 948.252 950.017 955.814 962.417 958.82 C 971.774 961.089 977.529 959.986 986.436 957.81 C 977.138 981.273 968.15 990.598 942.02 990.354 C 933.039 984.342 920.097 976.936 910.681 971.868 C 865.657 938.198 856.07 936.528 803.109 938.784 C 818.15 929.956 846.329 914.717 862.504 908.845 z"/>
<path transform="translate(0,0)" fill="rgb(247,197,5)" d="M 835.05 973.023 C 852.028 972.732 896.853 974.485 910.681 971.868 C 920.097 976.936 933.039 984.342 942.02 990.354 L 955.921 1004.95 C 949.817 1010.9 941.5 1019.77 934.676 1024.13 L 858.229 1024.01 C 848.759 1004.6 842.384 994.236 835.05 973.023 z"/>
<path transform="translate(0,0)" fill="rgb(2,104,54)" d="M 1110.87 1112 C 1120.16 1112.34 1168.45 1126.43 1180.64 1129.82 C 1177.22 1145.97 1174.49 1163.99 1171.68 1180.39 C 1171.18 1185.58 1170.16 1188.89 1168.81 1193.86 C 1167.25 1178.87 1163.22 1157.44 1157.47 1143.25 C 1142.8 1133.63 1124.85 1122.2 1110.87 1112 z"/>
<path transform="translate(0,0)" fill="rgb(241,76,24)" d="M 1331.83 1156.64 C 1343.5 1164.29 1376.34 1179.23 1390.57 1185.68 C 1410.64 1194.78 1439.25 1209.73 1459.13 1217.16 C 1489.02 1228.4 1515 1242.91 1543.7 1255.27 C 1566.25 1265.54 1599.95 1279.86 1620.76 1291.54 C 1605.76 1308.51 1589.13 1324.07 1572.94 1339.95 L 1520.19 1392.56 L 1348.38 1564.14 C 1320.56 1591.9 1290.41 1620.94 1263.24 1649.14 C 1247.66 1668.3 1227.73 1686.55 1209.95 1703.58 C 1196.69 1716.5 1183.56 1729.54 1170.56 1742.71 L 1082.2 1831.19 C 1064.64 1848.8 1042.32 1872.08 1023.92 1888.35 C 1011.54 1876.61 997.293 1860.87 984.825 1848.28 C 955.983 1819.27 926.963 1790.43 897.767 1761.76 L 822.337 1687.01 C 812.804 1677.51 791.429 1657.26 783.913 1647.81 C 758.338 1621.1 726.837 1591.39 700.266 1564.87 L 530.593 1395.02 L 461.522 1326.46 C 451.281 1316.14 437.683 1303.11 428.435 1292.28 C 451.611 1279.71 481.43 1266.24 505.656 1255.26 C 531.394 1244.47 562.635 1226.42 588.255 1217.65 C 599.412 1214.21 612.421 1206.59 623.416 1201.74 C 654.535 1188.01 686.181 1170.6 717.44 1157.63 C 727.191 1164.85 734.088 1172.55 742.222 1181.55 C 779.401 1215.88 815.988 1250.84 851.968 1286.42 C 852.033 1272.4 851.842 1258.59 853.107 1244.62 C 862.068 1251.66 878.947 1269.7 887.285 1278.24 C 909.97 1301.46 932.472 1324.86 954.789 1348.44 C 965.148 1336.61 985.01 1303.21 993.727 1296.97 C 1003.78 1297.13 1013.84 1297.14 1023.9 1297.01 C 1033.7 1296.92 1045.57 1297.12 1055.19 1296.44 C 1063.39 1300.95 1084.23 1338.15 1092.77 1348 C 1127.33 1314.61 1160.82 1276.14 1194.94 1243.76 C 1195.62 1257.88 1195.62 1272.37 1195.77 1286.54 C 1211.94 1272.54 1230.85 1253.36 1246.43 1238.26 L 1305.87 1181.64 C 1312.83 1174.19 1323.84 1162.26 1331.83 1156.64 z"/>
<path transform="translate(0,0)" fill="rgb(197,36,17)" d="M 1331.83 1156.64 C 1343.5 1164.29 1376.34 1179.23 1390.57 1185.68 C 1410.64 1194.78 1439.25 1209.73 1459.13 1217.16 C 1489.02 1228.4 1515 1242.91 1543.7 1255.27 C 1566.25 1265.54 1599.95 1279.86 1620.76 1291.54 C 1605.76 1308.51 1589.13 1324.07 1572.94 1339.95 L 1520.19 1392.56 L 1348.38 1564.14 C 1320.56 1591.9 1290.41 1620.94 1263.24 1649.14 C 1247.66 1668.3 1227.73 1686.55 1209.95 1703.58 C 1196.69 1716.5 1183.56 1729.54 1170.56 1742.71 L 1082.2 1831.19 C 1064.64 1848.8 1042.32 1872.08 1023.92 1888.35 C 1026.23 1856.59 1024.54 1823.12 1024.4 1791.25 C 1024.36 1781 1024.16 1769.82 1023.33 1759.64 C 1010.21 1766.94 1006.82 1768.76 992.471 1772.27 L 994.605 1760.89 L 995.551 1761.25 C 1008.97 1745.19 1015.59 1698.36 1031.13 1680.96 C 1040.23 1670.77 1052.5 1642.5 1057.89 1629.64 L 1058.09 1652.01 C 1070.65 1628.16 1081.79 1604.75 1088.38 1578.44 C 1100.41 1530.48 1083 1499.29 1058.11 1459.36 C 1058.2 1494.72 1058.1 1530.08 1057.81 1565.44 C 1054.15 1556.23 1050.48 1547.98 1046.16 1539.26 C 1037.17 1520.9 1023.9 1503.97 1023.86 1482.68 C 1023.83 1464.56 1023.93 1446.52 1023.96 1428.44 L 1023.9 1297.01 C 1033.7 1296.92 1045.57 1297.12 1055.19 1296.44 C 1063.39 1300.95 1084.23 1338.15 1092.77 1348 C 1127.33 1314.61 1160.82 1276.14 1194.94 1243.76 C 1195.62 1257.88 1195.62 1272.37 1195.77 1286.54 C 1211.94 1272.54 1230.85 1253.36 1246.43 1238.26 L 1305.87 1181.64 C 1312.83 1174.19 1323.84 1162.26 1331.83 1156.64 z"/>
<path transform="translate(0,0)" fill="rgb(104,175,71)" d="M 1331.83 1156.64 C 1343.5 1164.29 1376.34 1179.23 1390.57 1185.68 C 1410.64 1194.78 1439.25 1209.73 1459.13 1217.16 C 1489.02 1228.4 1515 1242.91 1543.7 1255.27 C 1566.25 1265.54 1599.95 1279.86 1620.76 1291.54 C 1605.76 1308.51 1589.13 1324.07 1572.94 1339.95 L 1520.19 1392.56 L 1348.38 1564.14 C 1320.56 1591.9 1290.41 1620.94 1263.24 1649.14 C 1262.35 1639.84 1263.04 1624.16 1262.94 1614.32 C 1262.69 1588.1 1263.57 1561.53 1262.74 1535.31 C 1269.57 1528.99 1276.27 1522.81 1282.12 1515.58 C 1285.45 1507.86 1291.01 1498.88 1295.52 1491.72 C 1320.34 1452.24 1332.84 1406.95 1345.75 1362.55 C 1351.93 1341.33 1359.64 1319.22 1364.8 1297.55 C 1360.28 1284.15 1348.26 1261.94 1341.32 1249.07 C 1329.18 1226.53 1317.51 1204.46 1305.87 1181.64 C 1312.83 1174.19 1323.84 1162.26 1331.83 1156.64 z"/>
<path transform="translate(0,0)" fill="rgb(2,104,54)" d="M 1331.83 1156.64 C 1343.5 1164.29 1376.34 1179.23 1390.57 1185.68 C 1410.64 1194.78 1439.25 1209.73 1459.13 1217.16 C 1489.02 1228.4 1515 1242.91 1543.7 1255.27 C 1540.21 1260.28 1530 1269.68 1525.24 1274.32 C 1512.44 1286.63 1499.74 1299.04 1487.14 1311.56 L 1343.76 1455.9 L 1306.26 1493.25 C 1299.71 1499.76 1289.46 1510.55 1282.12 1515.58 C 1285.45 1507.86 1291.01 1498.88 1295.52 1491.72 C 1320.34 1452.24 1332.84 1406.95 1345.75 1362.55 C 1351.93 1341.33 1359.64 1319.22 1364.8 1297.55 C 1360.28 1284.15 1348.26 1261.94 1341.32 1249.07 C 1329.18 1226.53 1317.51 1204.46 1305.87 1181.64 C 1312.83 1174.19 1323.84 1162.26 1331.83 1156.64 z"/>
<path transform="translate(0,0)" fill="rgb(2,104,54)" d="M 1236.5 1469.58 C 1237.32 1470.2 1238.13 1470.82 1238.93 1471.45 C 1258.73 1487.24 1259.95 1512.17 1262.74 1535.31 C 1263.57 1561.53 1262.69 1588.1 1262.94 1614.32 C 1263.04 1624.16 1262.35 1639.84 1263.24 1649.14 C 1247.66 1668.3 1227.73 1686.55 1209.95 1703.58 C 1196.69 1716.5 1183.56 1729.54 1170.56 1742.71 L 1082.2 1831.19 C 1064.64 1848.8 1042.32 1872.08 1023.92 1888.35 C 1026.23 1856.59 1024.54 1823.12 1024.4 1791.25 C 1024.36 1781 1024.16 1769.82 1023.33 1759.64 C 1037.4 1750.7 1050.85 1742.06 1063.33 1731.04 C 1097.27 1701.07 1119.08 1658.24 1125.2 1613.53 C 1126.88 1601.26 1127.54 1587.9 1128.35 1575.44 C 1128.97 1576.05 1129.57 1576.67 1130.17 1577.31 C 1149.27 1597.73 1145.64 1627.93 1144.96 1653.96 C 1155.72 1648.16 1165.65 1640.13 1174.35 1631.6 C 1224.02 1582.83 1234.85 1535.82 1236.5 1469.58 z"/>
<path transform="translate(0,0)" fill="rgb(241,76,24)" d="M 1161.88 1351.74 C 1167.16 1356.23 1168.66 1362.2 1172.23 1367.47 C 1205.29 1416.34 1196.71 1461.65 1171.92 1512.98 C 1168.25 1520.19 1164.91 1526.65 1160.83 1533.63 L 1160.92 1408.06 C 1160.93 1398.15 1160.32 1359.38 1161.88 1351.74 z"/>
<path transform="translate(0,0)" fill="rgb(241,76,24)" d="M 1263.07 1284.41 C 1274.51 1291.66 1287.64 1315.6 1291.7 1328.42 C 1302.88 1363.69 1292.85 1397.79 1276.87 1429.45 C 1273.02 1437.03 1267.8 1444.29 1263 1451.35 C 1262.12 1395.71 1262.15 1340.06 1263.07 1284.41 z"/>
<path transform="translate(0,0)" fill="rgb(104,175,71)" d="M 717.44 1157.63 C 727.191 1164.85 734.088 1172.55 742.222 1181.55 C 730.274 1205.88 717.239 1229.75 704.777 1253.77 C 698.766 1265.36 687.132 1285.45 683.401 1297.18 C 688.346 1319.72 696.304 1341.08 702.305 1362.78 C 719.646 1425.47 734.115 1464.5 769.456 1518.98 C 773.866 1524.04 779.089 1530.24 784.489 1534.22 C 784.583 1547.51 786.311 1641.88 783.913 1647.81 C 758.338 1621.1 726.837 1591.39 700.266 1564.87 L 530.593 1395.02 L 461.522 1326.46 C 451.281 1316.14 437.683 1303.11 428.435 1292.28 C 451.611 1279.71 481.43 1266.24 505.656 1255.26 C 531.394 1244.47 562.635 1226.42 588.255 1217.65 C 599.412 1214.21 612.421 1206.59 623.416 1201.74 C 654.535 1188.01 686.181 1170.6 717.44 1157.63 z"/>
<path transform="translate(0,0)" fill="rgb(28,128,64)" d="M 717.44 1157.63 C 727.191 1164.85 734.088 1172.55 742.222 1181.55 C 730.274 1205.88 717.239 1229.75 704.777 1253.77 C 698.766 1265.36 687.132 1285.45 683.401 1297.18 C 688.346 1319.72 696.304 1341.08 702.305 1362.78 C 719.646 1425.47 734.115 1464.5 769.456 1518.98 C 758.624 1511.99 509.545 1262.83 505.656 1255.26 C 531.394 1244.47 562.635 1226.42 588.255 1217.65 C 599.412 1214.21 612.421 1206.59 623.416 1201.74 C 654.535 1188.01 686.181 1170.6 717.44 1157.63 z"/>
<path transform="translate(0,0)" fill="rgb(28,128,64)" d="M 784.489 1534.22 C 789.127 1503.52 790.553 1493.84 809.634 1468.92 C 810.557 1483.05 811.162 1498.42 813.126 1512.35 C 821.195 1569.57 853.518 1624.62 904.175 1653.92 C 904.092 1630.16 903.177 1610.21 916.074 1589.03 C 953.61 1628.19 1001.09 1669.93 998.666 1727.2 C 998.169 1738.93 995.747 1749.53 994.605 1760.89 L 992.471 1772.27 C 1006.82 1768.76 1010.21 1766.94 1023.33 1759.64 C 1024.16 1769.82 1024.36 1781 1024.4 1791.25 C 1024.54 1823.12 1026.23 1856.59 1023.92 1888.35 C 1011.54 1876.61 997.293 1860.87 984.825 1848.28 C 955.983 1819.27 926.963 1790.43 897.767 1761.76 L 822.337 1687.01 C 812.804 1677.51 791.429 1657.26 783.913 1647.81 C 786.311 1641.88 784.583 1547.51 784.489 1534.22 z"/>
<path transform="translate(0,0)" fill="rgb(197,36,17)" d="M 989.57 1400.72 C 990.826 1407.79 989.946 1447.99 989.937 1457.2 C 990.192 1500.8 990.176 1544.39 989.888 1587.98 C 985.717 1580.28 981.995 1571.34 978.422 1563.26 C 947.302 1496.98 946.803 1461.58 989.57 1400.72 z"/>
<path transform="translate(0,0)" fill="rgb(197,36,17)" d="M 885.507 1352.64 C 885.644 1352.77 885.801 1352.88 885.918 1353.03 C 888.709 1356.48 887.124 1518.53 887.166 1534.51 C 883.325 1527.79 879.894 1520.62 876.444 1513.67 C 861.348 1486.17 848.563 1442.76 855.42 1411.18 C 859.71 1391.42 872.818 1368.27 885.507 1352.64 z"/>
<path transform="translate(0,0)" fill="rgb(197,36,17)" d="M 782.638 1285.73 C 786.616 1291.37 785.015 1431.59 784.945 1451.17 C 780.213 1444.59 777.228 1439.93 773.12 1432.92 C 743.005 1380.08 739.964 1331.7 782.638 1285.73 z"/>
<path transform="translate(0,0)" fill="rgb(243,134,0)" d="M 585.646 437.802 C 588.607 424.377 590.95 394.208 592.44 379.728 L 604.611 260.359 C 605.379 253.48 607.662 226.682 610.627 221.891 C 631.77 188.393 657.895 157.929 682.382 126.778 C 708.047 94.1292 731.762 60.2594 756.651 27.0767 C 760.102 22.4759 763.682 17.9504 768.715 15.0723 C 769.599 22.8237 761.774 44.4088 759.121 53.4447 C 740.64 116.383 718.657 179.449 702.79 243.045 C 701.618 247.745 705.224 286.721 706.503 293.071 L 707.756 305.995 L 708.977 315.225 C 714.377 363.965 717.959 412.841 723.397 461.313 C 722.83 469.065 728.126 507.768 729.236 519.33 C 731.001 537.706 732.467 560.871 734.665 578.963 C 742.224 589.429 752.833 598.992 761.997 608.174 C 777.941 624.15 794.565 639.574 810.269 655.79 C 821.973 667.841 844.993 688.747 853.936 701.008 L 853.985 819.328 C 815.042 820.543 775.766 819.531 736.777 820.309 C 729.802 820.449 722.864 820.396 715.895 820.039 C 701.149 808.381 670.245 775.688 654.868 760.534 C 635.753 741.869 616.74 723.1 597.83 704.226 C 587.654 694.073 571.962 679.057 563.331 667.917 C 561.671 658.496 566.942 627.282 568.434 616.105 C 571.114 605.961 572.99 573.458 574.293 560.747 L 582.524 478.682 C 583.438 469.44 586.358 445.935 585.646 437.802 z"/>
<path transform="translate(0,0)" fill="rgb(247,197,5)" d="M 585.646 437.802 C 588.607 424.377 590.95 394.208 592.44 379.728 L 604.611 260.359 C 605.379 253.48 607.662 226.682 610.627 221.891 C 631.77 188.393 657.895 157.929 682.382 126.778 C 708.047 94.1292 731.762 60.2594 756.651 27.0767 C 760.102 22.4759 763.682 17.9504 768.715 15.0723 C 768.387 16.2373 758.76 31.9267 755.489 39.2234 C 727.307 102.1 688.896 164.514 657.598 225.666 C 645.05 250.183 649.065 288.967 649.128 314.115 L 649.347 433.232 L 648.996 555.544 C 648.956 577.293 648.096 607.3 650.154 628.375 C 621.237 643.57 592.409 654.509 563.331 667.917 C 561.671 658.496 566.942 627.282 568.434 616.105 C 571.114 605.961 572.99 573.458 574.293 560.747 L 582.524 478.682 C 583.438 469.44 586.358 445.935 585.646 437.802 z"/>
<path transform="translate(0,0)" fill="rgb(90,48,24)" d="M 1023.39 0 L 1024.32 0 C 1113.66 93.1809 1208.16 182.392 1298.26 274.919 C 1311.39 288.401 1325.01 302.043 1338.47 315.18 C 1339.13 320.391 1334.27 362.786 1333.46 371.235 L 1328.02 428.705 C 1327.22 437.065 1326.15 452.759 1324.55 460.382 L 1024.04 160.498 C 990.87 193.013 957.862 227.002 924.864 259.818 L 723.397 461.313 C 717.959 412.841 714.377 363.965 708.977 315.225 L 716.346 307.955 L 723.696 300.552 C 745.937 275.329 783.141 240.425 807.455 216.058 L 931.162 92.3458 C 962.877 60.8326 992.326 32.4033 1023.39 0 z"/>
<path transform="translate(0,0)" fill="rgb(241,76,24)" d="M 714.974 886.919 C 717.974 903.604 717.042 944.937 717.033 963.649 L 716.797 1108.78 C 716.867 1118.15 715.93 1150.46 717.44 1157.63 C 686.181 1170.6 654.535 1188.01 623.416 1201.74 C 612.421 1206.59 599.412 1214.21 588.255 1217.65 C 575.417 1202.96 558.14 1189.71 545.733 1173.51 C 545.126 1149.49 544.821 1116.8 546.214 1092.97 C 556.635 1102.54 572.752 1119.11 583.105 1127.25 C 596.406 1125.98 607.479 1125.92 620.652 1127.94 C 605.096 1113.62 587.098 1104.3 579.536 1083.19 C 574.919 1070.3 572.239 1058.16 569.198 1044.85 C 567.785 1037.16 565.837 1028.88 564.187 1021.19 C 568.883 1026.83 576.644 1034.26 581.96 1039.65 C 596.87 1052.59 610.065 1054.25 628.871 1059.3 L 661.751 1038.29 C 612.116 1021.89 612.188 1024.52 592.417 973.443 C 608.236 974.299 622.774 975.514 638.592 976.983 C 645.686 973.714 653.763 968.495 660.496 964.83 C 684.76 951.622 695.434 942.914 704.968 916.549 C 708.766 906.047 711.79 898.555 714.974 886.919 z"/>
<path transform="translate(0,0)" fill="rgb(197,36,17)" d="M 569.198 1044.85 C 567.785 1037.16 565.837 1028.88 564.187 1021.19 C 568.883 1026.83 576.644 1034.26 581.96 1039.65 C 577.403 1040.08 574.632 1039.91 570.741 1042.31 L 569.198 1044.85 z"/>
<path transform="translate(0,0)" fill="rgb(169,57,38)" d="M 1484.36 1023.36 C 1483.23 1030.48 1482.42 1034.54 1480.49 1041.48 C 1473.83 1041.59 1472.27 1041.35 1465.77 1040.2 C 1471.39 1034.93 1478.38 1028.14 1484.36 1023.36 z"/>
</svg>
